<?xml version="1.0" encoding="iso-8859-1"?>
<!-- Generator: Adobe Illustrator 21.1.0, SVG Export Plug-In . SVG Version: 6.00 Build 0)  -->
<svg version="1.1" xmlns="http://www.w3.org/2000/svg" xmlns:xlink="http://www.w3.org/1999/xlink" x="0px" y="0px"
	 viewBox="0 0 65 65" style="enable-background:new 0 0 65 65;" xml:space="preserve">
<g id="Layer_1">
	<g>
		<polygon style="fill:#8DC83A;" points="3.361,41.476 31.815,25.049 62.639,42.846 34.186,59.273 		"/>
		<polygon style="fill:#DBA375;" points="3.361,41.476 3.361,46.953 34.186,64.749 34.186,59.273 		"/>
		<polygon style="fill:#B3E06C;" points="3.361,41.476 3.361,44.214 34.186,62.011 34.186,59.273 		"/>
		<polyline style="fill:#A16E40;" points="34.186,64.749 62.639,48.321 62.639,42.846 34.186,59.273 34.186,65 		"/>
		<polygon style="fill:#689911;" points="34.186,62.011 34.186,59.273 62.639,42.846 62.639,45.584 		"/>
	</g>
	<g>
		<polygon style="fill:#587574;" points="43.655,53.737 48.412,51.059 31.815,41.477 45.96,33.254 41.481,30.631 34.186,34.632 
			24.701,29.246 19.909,31.966 29.444,37.37 17.588,44.214 8.277,38.639 3.361,41.476 17.588,49.69 27.072,44.214 		"/>
		<g>
			<g>
				
					<rect x="6.854" y="40.209" transform="matrix(0.5149 -0.8572 0.8572 0.5149 -31.5412 25.7009)" style="fill:#F9F9F9;" width="0.171" height="1.026"/>
			</g>
			<g>
				<path style="fill:#F9F9F9;" d="M14.799,45.542l-1.866-1.121l0.088-0.147l1.866,1.121L14.799,45.542z M11.067,43.301L9.201,42.18
					l0.088-0.147l1.866,1.121L11.067,43.301z"/>
			</g>
			<g>
				<polygon style="fill:#F9F9F9;" points="17.587,47.217 16.665,46.663 16.753,46.516 17.589,47.019 18.434,46.531 18.52,46.68 
									"/>
			</g>
			<g>
				<path style="fill:#F9F9F9;" d="M20.322,45.64l-0.085-0.148l1.802-1.039l0.085,0.148L20.322,45.64z M23.927,43.562l-0.085-0.148
					l1.803-1.039l0.085,0.148L23.927,43.562z M27.532,41.484l-0.085-0.148l1.802-1.039l0.085,0.148L27.532,41.484z M31.137,39.406
					l-0.085-0.148l1.803-1.039l0.085,0.148L31.137,39.406z M34.742,37.328l-0.085-0.148l1.802-1.039l0.085,0.148L34.742,37.328z
					 M38.347,35.25l-0.085-0.148l1.803-1.039l0.085,0.148L38.347,35.25z"/>
			</g>
			<g>
				
					<rect x="41.84" y="32.756" transform="matrix(0.8663 -0.4995 0.4995 0.8663 -10.7423 25.5455)" style="fill:#F9F9F9;" width="1.026" height="0.171"/>
			</g>
		</g>
		<g>
			<g>
				
					<rect x="25.706" y="32.03" transform="matrix(0.5001 -0.866 0.866 0.5001 -15.2875 38.6035)" style="fill:#F9F9F9;" width="0.171" height="1.026"/>
			</g>
			<g>
				
					<rect x="28.441" y="33.24" transform="matrix(0.5001 -0.866 0.866 0.5001 -15.2885 41.7587)" style="fill:#F9F9F9;" width="0.171" height="1.763"/>
			</g>
			<g>
				
					<rect x="31.175" y="35.188" transform="matrix(0.5002 -0.8659 0.8659 0.5002 -15.2894 44.9145)" style="fill:#F9F9F9;" width="0.171" height="1.026"/>
			</g>
		</g>
		<g>
			<g>
				
					<rect x="44.771" y="51.241" transform="matrix(0.5197 -0.8543 0.8543 0.5197 -22.6719 63.1796)" style="fill:#F9F9F9;" width="0.171" height="1.026"/>
			</g>
			<g>
				<path style="fill:#F9F9F9;" d="M42.978,50.712l-1.395-0.849l0.089-0.146l1.395,0.849L42.978,50.712z M40.188,49.014
					l-1.395-0.849l0.089-0.146l1.395,0.849L40.188,49.014z"/>
			</g>
			<g>
				
					<rect x="36.918" y="46.464" transform="matrix(0.5197 -0.8543 0.8543 0.5197 -22.362 54.1759)" style="fill:#F9F9F9;" width="0.171" height="1.026"/>
			</g>
		</g>
	</g>
	<polygon style="fill:#F55145;" points="17.588,19.573 24.701,15.467 24.701,37.37 17.588,41.477 	"/>
	<g>
		<polyline style="fill:#594423;" points="27.976,27.212 27.976,29.994 28.658,29.6 28.641,26.828 27.976,27.212 		"/>
		<polygon style="fill:#7B6540;" points="27.976,29.994 27.976,27.212 27.312,26.828 27.325,29.618 		"/>
		<polygon style="fill:#7C9750;" points="27.976,28.122 27.976,23.859 29.583,27.194 		"/>
		<polygon style="fill:#95B35E;" points="27.977,28.122 27.977,23.859 26.37,27.194 		"/>
	</g>
	<polygon style="fill:#CDCAC9;" points="30.776,29.699 30.776,29.047 34.863,29.17 34.863,29.85 	"/>
	<g>
		<polyline style="fill:#594423;" points="37.924,28.558 37.924,31.34 38.606,30.946 38.589,28.174 37.924,28.558 		"/>
		<polygon style="fill:#7B6540;" points="37.924,31.34 37.924,28.558 37.26,28.174 37.273,30.963 		"/>
		<polygon style="fill:#7C9750;" points="37.924,29.467 37.924,25.205 39.531,28.54 		"/>
		<polygon style="fill:#95B35E;" points="37.925,29.467 37.925,25.205 36.318,28.54 		"/>
	</g>
	<g>
		<polygon style="fill:#F3F0F3;" points="36.557,41.388 36.557,36.001 41.299,38.694 41.299,44.215 		"/>
		<polygon style="fill:#E9E7EB;" points="41.299,38.694 46.041,36.001 46.041,41.476 41.299,44.215 		"/>
		<polygon style="fill:#F55145;" points="41.299,38.694 43.677,34.659 46.041,36.001 		"/>
		<polyline style="fill:#ED866B;" points="41.299,38.694 36.557,36.001 38.928,31.894 43.677,34.659 		"/>
		<polygon style="fill:#431E09;" points="38.068,42.279 38.068,39.221 39.392,39.985 39.392,43.044 		"/>
	</g>
	<g>
		<polyline style="fill:#594423;" points="32.415,24.645 32.415,27.427 33.097,27.034 33.08,24.262 32.415,24.645 		"/>
		<polygon style="fill:#7B6540;" points="32.415,27.427 32.415,24.645 31.751,24.262 31.764,27.051 		"/>
		<polygon style="fill:#7C9750;" points="32.415,25.555 32.415,21.293 34.022,24.628 		"/>
		<polygon style="fill:#95B35E;" points="32.416,25.555 32.416,21.293 30.809,24.628 		"/>
	</g>
	<polygon style="fill:#D3C366;" points="27.072,39.248 27.072,39.616 23.541,41.667 23.213,41.477 	"/>
	<g>
		<polygon style="fill:#ED866B;" points="17.588,41.477 17.588,19.573 12.846,16.836 12.846,38.634 		"/>
		<polygon style="fill:#FFA8A3;" points="12.846,16.836 17.588,19.573 24.701,15.467 19.959,12.729 		"/>
		<polygon style="fill:#D3B7B2;" points="13.993,16.836 17.588,18.911 23.632,15.467 19.959,13.391 		"/>
		<polygon style="fill:#BA2724;" points="19.959,13.391 13.993,16.836 14.498,17.127 19.959,13.972 23.081,15.781 23.632,15.467 		
			"/>
		<polygon style="fill:#412009;" points="22.176,38.852 22.176,35.793 20.851,36.558 20.851,39.616 		"/>
		<polygon style="fill:#65CEE9;" points="13.685,19.573 14.774,20.218 14.774,38.146 13.685,37.415 		"/>
		<polygon style="fill:#65CEE9;" points="15.727,20.648 16.816,21.293 16.816,39.221 15.727,38.49 		"/>
		<polygon style="fill:#65CEE9;" points="22.298,19.671 24.127,18.615 24.127,20.727 22.298,21.765 		"/>
		<polygon style="fill:#65CEE9;" points="18.683,21.704 20.512,20.648 20.512,22.76 18.683,23.798 		"/>
		<polygon style="fill:#65CEE9;" points="22.298,22.348 24.127,21.293 24.127,23.404 22.298,24.442 		"/>
		<polygon style="fill:#65CEE9;" points="22.298,27.773 24.127,26.717 24.127,28.829 22.298,29.867 		"/>
		<polygon style="fill:#65CEE9;" points="22.298,30.543 24.127,29.487 24.127,31.599 22.298,32.637 		"/>
		<polygon style="fill:#65CEE9;" points="22.298,25.02 24.127,23.964 24.127,26.077 22.298,27.114 		"/>
		<polygon style="fill:#65CEE9;" points="18.683,24.48 20.512,23.424 20.512,25.536 18.683,26.574 		"/>
		<polygon style="fill:#65CEE9;" points="18.683,29.904 20.512,28.848 20.512,30.96 18.683,31.998 		"/>
		<polygon style="fill:#65CEE9;" points="18.683,32.674 20.512,31.618 20.512,33.73 18.683,34.768 		"/>
		<polygon style="fill:#65CEE9;" points="18.683,27.152 20.512,26.096 20.512,28.208 18.683,29.246 		"/>
	</g>
	<g>
		<polygon style="fill:#FBF6B5;" points="22.33,49.764 22.35,41.465 34.203,48.336 34.203,56.545 		"/>
		<polygon style="fill:#F1E697;" points="34.203,48.336 38.927,45.583 38.927,53.797 34.203,56.545 		"/>
		<polygon style="fill:#F6F0E0;" points="22.35,41.465 27.072,38.739 38.927,45.583 34.203,48.336 		"/>
		<polygon style="fill:#5DAF91;" points="23.962,48.963 23.962,47.376 32.21,52.138 32.21,53.726 		"/>
		<polygon style="fill:#5DAF91;" points="23.962,45.802 23.962,44.215 32.21,48.977 32.21,50.564 		"/>
		<polygon style="fill:#5DAF91;" points="35.771,49.248 37.557,48.217 37.557,50.279 35.771,51.309 		"/>
		<polygon style="fill:#E3DAB9;" points="23.213,41.477 27.072,39.248 38.111,45.548 34.203,47.826 		"/>
		<polygon style="fill:#D3C366;" points="27.072,39.616 37.775,45.744 38.111,45.548 27.072,39.248 		"/>
		<path style="fill:#B3B3B1;" d="M24.62,39.71v2.056c0,0,0.107,0.395,1.153,0.395c1.046,0,1.153-0.461,1.153-0.461v-1.99H24.62z"/>
		<g>
			<path style="fill:#DFE0DD;" d="M24.955,40.191c-0.436-0.242-0.418-0.657,0.04-0.921c0.458-0.265,1.172-0.265,1.587,0
				c0.415,0.265,0.397,0.679-0.04,0.921C26.105,40.433,25.391,40.433,24.955,40.191z"/>
		</g>
	</g>
	<g>
		<g>
			<path style="fill:#CDCAC9;" d="M31.383,30.621c-0.808-0.507-0.808-1.337,0-1.844c0.808-0.507,2.129-0.507,2.936,0
				c0.807,0.507,0.807,1.337,0,1.844S32.191,31.128,31.383,30.621z"/>
		</g>
		<g>
			<path style="fill:#F3F0F3;" d="M31.363,29.957c-0.796-0.5-0.796-1.318,0-1.818l0.041-0.026c0.796-0.5,2.099-0.5,2.896,0
				l0.041,0.025c0.796,0.5,0.796,1.318,0,1.819L34.3,29.982c-0.796,0.5-2.099,0.5-2.896,0L31.363,29.957z"/>
		</g>
		<g>
			<path style="fill:#2BA9EB;" d="M31.66,29.735c-0.656-0.378-0.656-0.998,0-1.376c0.656-0.378,1.728-0.378,2.384,0
				c0.655,0.378,0.655,0.998,0,1.376C33.388,30.113,32.315,30.114,31.66,29.735z"/>
		</g>
	</g>
	<g>
		<polyline style="fill:#594423;" points="34.186,30.708 34.186,33.491 34.867,33.097 34.85,30.325 34.186,30.708 		"/>
		<polygon style="fill:#7B6540;" points="34.186,33.491 34.186,30.708 33.521,30.325 33.534,33.115 		"/>
		<polygon style="fill:#7C9750;" points="34.186,31.618 34.186,27.356 35.792,30.691 		"/>
		<polygon style="fill:#95B35E;" points="34.186,31.618 34.186,27.356 32.579,30.691 		"/>
	</g>
	<g>
		<polygon style="fill:#F0E0B6;" points="43.543,45.51 43.543,37.42 50.763,41.465 50.763,49.764 		"/>
		<polygon style="fill:#FCF1D9;" points="43.543,37.42 53.203,31.866 60.267,36.001 50.763,41.465 		"/>
		<polygon style="fill:#DDCFA2;" points="60.267,36.001 60.268,44.215 50.763,49.764 50.763,41.465 		"/>
		<polygon style="fill:#412009;" points="46.491,47.174 46.491,44.116 47.815,44.88 47.815,47.939 		"/>
		<polygon style="fill:#FFFFFF;" points="45.055,39.77 49.801,42.517 48.412,45.022 43.611,42.258 		"/>
		<polygon style="fill:#5EB4B1;" points="57.178,41.08 57.178,43.265 59.063,42.168 59.063,39.978 		"/>
		<polygon style="fill:#5EB4B1;" points="53.154,43.398 53.154,45.583 55.039,44.486 55.039,42.296 		"/>
		<polygon style="fill:#D2D4CF;" points="44.271,37.369 53.154,32.286 59.519,36.001 50.763,40.995 		"/>
		<polygon style="fill:#B29959;" points="53.154,32.286 44.271,37.369 44.953,37.75 53.154,32.99 58.875,36.368 59.519,36.001 		"/>
		<polygon style="fill:#E78857;" points="54.657,36.419 54.657,34.537 56.287,35.478 56.287,37.378 		"/>
		<polygon style="fill:#EB7834;" points="56.287,35.478 57.917,34.537 57.917,36.419 56.287,37.378 		"/>
		<polygon style="fill:#F2B9A0;" points="54.657,34.537 56.287,33.596 57.917,34.537 56.287,35.478 		"/>
		<polygon style="fill:#BF5929;" points="56.287,33.831 55.065,34.537 56.287,35.242 57.509,34.537 		"/>
		<polygon style="fill:#E78857;" points="49.02,42.064 49.801,42.517 48.392,45.022 47.561,44.543 		"/>
		<polygon style="fill:#E78857;" points="45.069,39.795 45.85,40.247 44.442,42.752 43.611,42.274 		"/>
		<polygon style="fill:#E78857;" points="47.044,40.917 47.826,41.37 46.417,43.874 45.586,43.396 		"/>
		<polygon style="fill:#FFFFFF;" points="48.392,45.022 49.801,44.215 49.801,42.517 		"/>
	</g>
</g>
<g id="Layer_2">
	<g>
		<polygon style="fill:#F9F9F9;" points="48.243,24.51 53.794,21.305 53.794,25.691 48.243,28.983 		"/>
		<polygon style="fill:#2AACDC;" points="49.033,24.774 54.585,21.569 54.585,25.954 49.033,29.246 		"/>
		<polygon style="fill:#056EBC;" points="49.033,24.774 52.216,25.622 54.585,21.569 		"/>
	</g>
	<g>
		<g>
			
				<line style="fill:none;stroke:#000000;stroke-width:0.171;stroke-miterlimit:10;" x1="51.905" y1="36.852" x2="51.905" y2="36.339"/>
			
				<line style="fill:none;stroke:#000000;stroke-width:0.171;stroke-miterlimit:10;stroke-dasharray:1.0578,1.0578;" x1="51.905" y1="35.281" x2="51.905" y2="29.464"/>
			
				<line style="fill:none;stroke:#000000;stroke-width:0.171;stroke-miterlimit:10;" x1="51.905" y1="28.935" x2="51.905" y2="28.422"/>
		</g>
	</g>
	<g>
		<g>
			
				<line style="fill:none;stroke:#000000;stroke-width:0.171;stroke-miterlimit:10;" x1="41.481" y1="32.99" x2="41.481" y2="32.477"/>
			
				<line style="fill:none;stroke:#000000;stroke-width:0.171;stroke-miterlimit:10;stroke-dasharray:1.0577,1.0577;" x1="41.481" y1="31.419" x2="41.481" y2="25.602"/>
			
				<line style="fill:none;stroke:#000000;stroke-width:0.171;stroke-miterlimit:10;" x1="41.481" y1="25.073" x2="41.481" y2="24.56"/>
		</g>
	</g>
	<g>
		<g>
			<g>
				<path style="fill:#F9F9F9;" d="M43.173,23.513c-0.023,0.558-0.395,0.879-0.833,0.716c-0.437-0.163-0.774-0.748-0.751-1.306
					c0.022-0.559,0.395-0.879,0.833-0.717C42.859,22.369,43.195,22.954,43.173,23.513z"/>
				<path style="fill:#F9F9F9;" d="M39.203,18.978c0,0,2.957-3.097,6.603,2.459l0.94-0.558c0,0-3.357-6.562-8.123-2.722
					L39.203,18.978z"/>
				<path style="fill:#F9F9F9;" d="M40.434,21.466c0,0,2-1.959,3.979,1.482l0.581-0.692c0,0-2.315-4.258-5.071-1.889L40.434,21.466z
					"/>
			</g>
		</g>
		<g>
			<g>
				<path style="fill:#55B7AD;" d="M42.475,23.684c-0.023,0.558-0.395,0.879-0.833,0.716c-0.437-0.163-0.774-0.748-0.752-1.306
					c0.023-0.559,0.396-0.879,0.833-0.717C42.161,22.54,42.498,23.125,42.475,23.684z"/>
				<path style="fill:#55B7AD;" d="M38.505,19.149c0,0,2.957-3.097,6.603,2.459l0.94-0.558c0,0-3.357-6.562-8.123-2.722
					L38.505,19.149z"/>
				<path style="fill:#55B7AD;" d="M39.736,21.637c0,0,2-1.959,3.979,1.482l0.581-0.692c0,0-2.315-4.258-5.071-1.889L39.736,21.637z
					"/>
			</g>
		</g>
	</g>
	<g>
		<g>
			
				<line style="fill:none;stroke:#000000;stroke-width:0.171;stroke-miterlimit:10;" x1="18.813" y1="16.129" x2="18.813" y2="15.616"/>
			
				<line style="fill:none;stroke:#000000;stroke-width:0.171;stroke-miterlimit:10;stroke-dasharray:1.0578,1.0578;" x1="18.813" y1="14.558" x2="18.813" y2="8.741"/>
			
				<line style="fill:none;stroke:#000000;stroke-width:0.171;stroke-miterlimit:10;" x1="18.813" y1="8.212" x2="18.813" y2="7.699"/>
		</g>
	</g>
	<g>
		<polygon style="fill:#F9F9F9;" points="13.555,9.583 15.926,8.214 15.894,10.97 17.496,7.308 20.668,5.476 20.668,0 13.554,4.107 
					"/>
		<polygon style="fill:#E9CE63;" points="14.345,9.846 16.716,8.477 16.684,11.233 18.286,7.571 21.458,5.739 21.458,0.263 
			14.345,4.37 		"/>
		<path style="fill:#F9F9F9;" d="M17.035,5.843c0.003,0.388-0.287,0.756-0.647,0.821c-0.36,0.066-0.655-0.194-0.657-0.582
			c-0.003-0.387,0.287-0.755,0.647-0.821C16.738,5.195,17.032,5.456,17.035,5.843z"/>
		<path style="fill:#F9F9F9;" d="M18.886,4.917c0.003,0.388-0.287,0.755-0.647,0.821c-0.36,0.066-0.655-0.194-0.657-0.582
			c-0.003-0.388,0.287-0.755,0.647-0.822C18.589,4.269,18.884,4.529,18.886,4.917z"/>
		<path style="fill:#F9F9F9;" d="M20.63,3.926c0.003,0.388-0.287,0.755-0.647,0.821c-0.36,0.066-0.654-0.194-0.657-0.582
			c-0.003-0.388,0.287-0.755,0.647-0.822C20.333,3.278,20.628,3.538,20.63,3.926z"/>
	</g>
	<g>
		<path style="fill:#F9F9F9;" d="M29.598,34.061c0.34-0.752,1.23-0.985,1.988-0.521c0.736,0.451,1.116,1.412,0.782,2.137
			c-0.313,0.677-1.404,2.63-1.404,2.63s-0.983-2.015-1.253-2.712C29.572,35.237,29.38,34.543,29.598,34.061z"/>
		<path style="fill:#F9372D;" d="M29.071,34.061c0.34-0.752,1.231-0.985,1.988-0.521c0.736,0.451,1.117,1.412,0.782,2.137
			c-0.313,0.677-1.404,2.63-1.404,2.63s-0.983-2.015-1.253-2.712C29.045,35.237,28.853,34.543,29.071,34.061z"/>
		<path style="fill:#FFFFFE;" d="M30.984,35.056c-0.002,0.308-0.234,0.492-0.519,0.412c-0.285-0.08-0.515-0.396-0.514-0.704
			c0.002-0.308,0.234-0.492,0.519-0.412C30.756,34.433,30.986,34.748,30.984,35.056z"/>
	</g>
	<g>
		<g>
			
				<line style="fill:none;stroke:#000000;stroke-width:0.171;stroke-miterlimit:10;" x1="30.468" y1="43.463" x2="30.468" y2="42.95"/>
			
				<line style="fill:none;stroke:#000000;stroke-width:0.171;stroke-miterlimit:10;stroke-dasharray:1.0631,1.0631;" x1="30.468" y1="41.887" x2="30.468" y2="40.293"/>
			
				<line style="fill:none;stroke:#000000;stroke-width:0.171;stroke-miterlimit:10;" x1="30.468" y1="39.761" x2="30.468" y2="39.248"/>
		</g>
	</g>
	<g>
	</g>
	<g>
	</g>
	<g>
	</g>
	<g>
	</g>
	<g>
	</g>
	<g>
	</g>
	<g>
	</g>
	<g>
	</g>
	<g>
	</g>
	<g>
	</g>
	<g>
	</g>
	<g>
	</g>
	<g>
	</g>
	<g>
	</g>
	<g>
	</g>
</g>
</svg>
